# xmcd
#
# Track frame offsets: 
#        150
#        12380
#        25365
#        37605
#        50855
#        65395
#        78532
#        92362
#        105100
#        118147
#
# Disc length: 1809 seconds
#
# Revision: 2
# Processed by: cddbd v1.4PL0 Copyright (c) Steve Scherf et al.
# Submitted via: ExactAudioCopy v0.90b3
#
DISCID=72070f0a
DTITLE=Charlie Rich - American Originals
DYEAR=1900
DGENRE=Country
TTITLE0=Rollin' With The Flow
TTITLE1=I Take It On Home
TTITLE2=The Most Beautiful Girl
TTITLE3=Behind Closed Doors
TTITLE4=On My Knees
TTITLE5=Beautiful Woman
TTITLE6=Since I Fell For You
TTITLE7=Easy Look
TTITLE8=All Over Me
TTITLE9=My Elusive Dreams
EXTD=
EXTT0=
EXTT1=
EXTT2=
EXTT3=
EXTT4=
EXTT5=
EXTT6=
EXTT7=
EXTT8=
EXTT9=
PLAYORDER=
